<svg width="680" height="320" viewBox="0 0 680 320" xmlns="http://www.w3.org/2000/svg">
  <defs>
    <radialGradient id="bgGrad" cx="50%" cy="50%" r="70%">
      <stop offset="0%" stop-color="#FFF8E7"/>
      <stop offset="100%" stop-color="#FFF0CC"/>
    </radialGradient>
    <clipPath id="roundClip">
      <rect width="680" height="320" rx="16"/>
    </clipPath>
  </defs>

  <g clip-path="url(#roundClip)">
    <!-- Background -->
    <rect width="680" height="320" fill="url(#bgGrad)"/>

    <!-- Subtle grid texture lines -->
    <line x1="0" y1="80" x2="680" y2="80" stroke="#F5DFA0" stroke-width="0.5"/>
    <line x1="0" y1="160" x2="680" y2="160" stroke="#F5DFA0" stroke-width="0.5"/>
    <line x1="0" y1="240" x2="680" y2="240" stroke="#F5DFA0" stroke-width="0.5"/>
    <line x1="170" y1="0" x2="170" y2="320" stroke="#F5DFA0" stroke-width="0.5"/>
    <line x1="340" y1="0" x2="340" y2="320" stroke="#F5DFA0" stroke-width="0.5"/>
    <line x1="510" y1="0" x2="510" y2="320" stroke="#F5DFA0" stroke-width="0.5"/>

    <!-- Tomato -->
    <ellipse cx="88" cy="180" rx="36" ry="34" fill="#E03A2E"/>
    <ellipse cx="88" cy="172" rx="36" ry="28" fill="#E84040"/>
    <ellipse cx="96" cy="166" rx="10" ry="7" fill="#F06060" opacity="0.5"/>
    <path d="M88 148 Q84 138 78 133" stroke="#3A7D2C" stroke-width="2.5" fill="none" stroke-linecap="round"/>
    <path d="M88 148 Q92 136 100 132" stroke="#3A7D2C" stroke-width="2.5" fill="none" stroke-linecap="round"/>
    <path d="M88 148 Q88 136 88 130" stroke="#3A7D2C" stroke-width="2.5" fill="none" stroke-linecap="round"/>

    <!-- Second tomato -->
    <ellipse cx="130" cy="195" rx="30" ry="28" fill="#D42E22"/>
    <ellipse cx="130" cy="188" rx="30" ry="23" fill="#E03A2E"/>
    <ellipse cx="138" cy="183" rx="8" ry="5" fill="#F06060" opacity="0.4"/>
    <path d="M130 166 Q127 157 122 153" stroke="#3A7D2C" stroke-width="2" fill="none" stroke-linecap="round"/>
    <path d="M130 166 Q133 155 140 152" stroke="#3A7D2C" stroke-width="2" fill="none" stroke-linecap="round"/>

    <!-- Lemon -->
    <ellipse cx="590" cy="110" rx="42" ry="32" fill="#F5C518"/>
    <ellipse cx="590" cy="106" rx="42" ry="28" fill="#F7D23E"/>
    <ellipse cx="600" cy="100" rx="14" ry="9" fill="#FAE080" opacity="0.5"/>
    <ellipse cx="548" cy="110" rx="8" ry="6" fill="#E8B510"/>
    <ellipse cx="632" cy="110" rx="8" ry="6" fill="#E8B510"/>

    <!-- Lemon slice -->
    <ellipse cx="610" cy="168" rx="28" ry="28" fill="#F7D23E"/>
    <ellipse cx="610" cy="168" rx="24" ry="24" fill="#FBE97A"/>
    <ellipse cx="610" cy="168" rx="18" ry="18" fill="#F7D23E"/>
    <line x1="610" y1="144" x2="610" y2="192" stroke="#FBE97A" stroke-width="1.5"/>
    <line x1="586" y1="168" x2="634" y2="168" stroke="#FBE97A" stroke-width="1.5"/>
    <line x1="593" y1="151" x2="627" y2="185" stroke="#FBE97A" stroke-width="1.5"/>
    <line x1="627" y1="151" x2="593" y2="185" stroke="#FBE97A" stroke-width="1.5"/>

    <!-- Avocado half -->
    <ellipse cx="340" cy="230" rx="48" ry="60" fill="#5BA83A"/>
    <ellipse cx="340" cy="234" rx="40" ry="52" fill="#7DC455"/>
    <ellipse cx="340" cy="238" rx="30" ry="40" fill="#C9E6A0"/>
    <ellipse cx="340" cy="244" rx="18" ry="24" fill="#6B3D1E"/>
    <ellipse cx="340" cy="242" rx="14" ry="20" fill="#8B5230"/>

    <!-- Bell pepper -->
    <path d="M470 120 Q510 90 550 110 Q570 140 555 180 Q540 210 510 215 Q480 210 465 180 Q450 150 470 120Z" fill="#E8451C"/>
    <path d="M475 118 Q510 92 545 112 Q563 140 550 177 Q535 207 510 212 Q485 207 470 177 Q457 150 475 118Z" fill="#F05030"/>
    <ellipse cx="518" cy="130" rx="12" ry="8" fill="#F87050" opacity="0.5"/>
    <rect x="507" y="90" width="6" height="22" rx="3" fill="#3A7D2C"/>
    <path d="M510 95 Q520 85 530 88" stroke="#3A7D2C" stroke-width="2.5" fill="none" stroke-linecap="round"/>

    <!-- Garlic bulb -->
    <ellipse cx="200" cy="100" rx="32" ry="28" fill="#F5EDD6"/>
    <ellipse cx="200" cy="96" rx="32" ry="24" fill="#FAF4E0"/>
    <path d="M200 76 Q192 86 200 120" stroke="#DDD0B0" stroke-width="1" fill="none"/>
    <path d="M200 76 Q208 86 200 120" stroke="#DDD0B0" stroke-width="1" fill="none"/>
    <path d="M200 76 Q182 90 185 115" stroke="#DDD0B0" stroke-width="1" fill="none"/>
    <path d="M200 76 Q218 90 215 115" stroke="#DDD0B0" stroke-width="1" fill="none"/>
    <path d="M200 72 Q196 58 193 48" stroke="#C8B88A" stroke-width="3" fill="none" stroke-linecap="round"/>
    <path d="M200 72 Q204 58 207 48" stroke="#C8B88A" stroke-width="3" fill="none" stroke-linecap="round"/>

    <!-- Chili pepper -->
    <path d="M60 80 Q90 60 115 55 Q120 70 110 85 Q85 95 60 80Z" fill="#D42E22"/>
    <path d="M60 80 Q88 62 112 57 Q117 70 108 83 Q84 93 60 80Z" fill="#E03A2E"/>
    <ellipse cx="95" cy="67" rx="7" ry="4" fill="#F06050" opacity="0.5"/>
    <path d="M60 80 Q45 78 38 72" stroke="#C82020" stroke-width="2" fill="none" stroke-linecap="round"/>
    <path d="M115 56 Q120 46 124 42" stroke="#3A7D2C" stroke-width="2.5" fill="none" stroke-linecap="round"/>

    <!-- Basil leaves -->
    <ellipse cx="250" cy="195" rx="22" ry="14" fill="#2E9E4A" transform="rotate(-25 250 195)"/>
    <ellipse cx="278" cy="183" rx="18" ry="12" fill="#36B855" transform="rotate(10 278 183)"/>
    <ellipse cx="262" cy="210" rx="16" ry="10" fill="#2E9E4A" transform="rotate(30 262 210)"/>
    <path d="M238 196 Q250 195 262 194" stroke="#1E7D36" stroke-width="0.8" fill="none"/>
    <path d="M268 183 Q278 183 288 183" stroke="#1E7D36" stroke-width="0.8" fill="none"/>

    <!-- Carrot -->
    <path d="M420 245 Q430 220 440 200 Q448 200 450 220 Q445 245 435 265Z" fill="#F0710A"/>
    <path d="M422 243 Q432 220 441 202 Q447 202 449 220 Q444 243 435 263Z" fill="#F58520"/>
    <ellipse cx="442" cy="200" rx="6" ry="4" fill="#FFA040" opacity="0.5"/>
    <path d="M440 198 Q436 185 430 175" stroke="#3A9E20" stroke-width="2" fill="none" stroke-linecap="round"/>
    <path d="M440 198 Q444 183 450 172" stroke="#3A9E20" stroke-width="2" fill="none" stroke-linecap="round"/>
    <path d="M440 198 Q440 183 440 171" stroke="#3A9E20" stroke-width="2" fill="none" stroke-linecap="round"/>

    <!-- Onion -->
    <ellipse cx="160" cy="265" rx="38" ry="28" fill="#D4702A"/>
    <ellipse cx="160" cy="259" rx="38" ry="23" fill="#E8824A"/>
    <ellipse cx="170" cy="253" rx="12" ry="7" fill="#F09060" opacity="0.4"/>
    <path d="M130 262 Q160 240 190 262" stroke="#C06030" stroke-width="1" fill="none"/>
    <path d="M133 272 Q160 252 187 272" stroke="#C06030" stroke-width="1" fill="none"/>
    <path d="M160 236 Q157 222 154 215" stroke="#9E7A50" stroke-width="3" fill="none" stroke-linecap="round"/>

    <!-- Mushroom -->
    <ellipse cx="370" cy="100" rx="30" ry="18" fill="#B07840"/>
    <ellipse cx="370" cy="96" rx="30" ry="14" fill="#C89050"/>
    <ellipse cx="380" cy="90" rx="10" ry="6" fill="#D8A870" opacity="0.5"/>
    <rect x="362" y="112" width="16" height="22" rx="4" fill="#E8D0A8"/>
    <line x1="340" y1="104" x2="362" y2="115" stroke="#C8A880" stroke-width="0.8"/>
    <line x1="400" y1="104" x2="378" y2="115" stroke="#C8A880" stroke-width="0.8"/>
    <line x1="350" y1="108" x2="362" y2="116" stroke="#C8A880" stroke-width="0.8"/>
    <line x1="390" y1="108" x2="378" y2="116" stroke="#C8A880" stroke-width="0.8"/>

    <!-- Olive oil bottle -->
    <rect x="292" y="60" width="26" height="65" rx="5" fill="#C8D870" opacity="0.85"/>
    <rect x="296" y="52" width="18" height="14" rx="4" fill="#A0B040"/>
    <rect x="299" y="44" width="12" height="12" rx="2" fill="#808030"/>
    <rect x="292" y="85" width="26" height="40" rx="0" fill="#B0C040" opacity="0.6"/>
    <rect x="295" y="90" width="20" height="18" rx="2" fill="#F5F0DC"/>

    <!-- Scattered spice dots -->
    <circle cx="160" cy="140" r="3" fill="#8B6030" opacity="0.7"/>
    <circle cx="172" cy="148" r="2" fill="#8B6030" opacity="0.6"/>
    <circle cx="153" cy="152" r="2.5" fill="#8B6030" opacity="0.5"/>
    <circle cx="480" cy="260" r="3" fill="#D42E22" opacity="0.6"/>
    <circle cx="492" cy="252" r="2" fill="#D42E22" opacity="0.5"/>
    <circle cx="470" cy="255" r="2.5" fill="#D42E22" opacity="0.7"/>

    <!-- Branding overlay -->
    <rect x="0" y="260" width="680" height="60" fill="#1A0A00" opacity="0.45"/>
    <text x="340" y="300" text-anchor="middle" font-family="Georgia, serif" font-size="26" font-weight="700" fill="#FFF8E7" letter-spacing="3">CookGenie</text>
    <text x="340" y="318" text-anchor="middle" font-family="Georgia, serif" font-size="11" fill="#F5C518" letter-spacing="5">FRESH · BOLD · DELICIOUS</text>
  </g>
</svg>
